<?xml version="1.0" encoding="UTF-8"?>
<svg id="Layer_1" data-name="Layer 1" xmlns="http://www.w3.org/2000/svg" viewBox="0 0 784.93 784.93">
  <defs>
    <style>
      .cls-1 {
        fill: #fff;
      }

      .cls-2 {
        fill: #fff08b;
      }

      .cls-3 {
        fill: #d5e048;
      }

      .cls-4 {
        fill: #231f20;
      }

      .cls-5 {
        fill: #754c29;
      }
    </style>
  </defs>
  <circle class="cls-5" cx="392.47" cy="392.47" r="392.47"/>
  <circle class="cls-2" cx="392.47" cy="392.47" r="369.76"/>
  <circle class="cls-3" cx="392.47" cy="392.47" r="350.52"/>
  <circle class="cls-3" cx="392.47" cy="392.47" r="350.52"/>
  <circle class="cls-1" cx="392.47" cy="392.47" r="97.26"/>
  <g>
    <circle class="cls-1" cx="466.37" cy="454.4" r="16.41"/>
    <circle class="cls-1" cx="432.18" cy="480.34" r="16.41"/>
    <circle class="cls-1" cx="390.12" cy="488.87" r="16.41"/>
    <circle class="cls-1" cx="348.53" cy="478.3" r="16.41"/>
    <circle class="cls-1" cx="315.64" cy="450.74" r="16.41"/>
    <circle class="cls-1" cx="297.96" cy="411.63" r="16.41"/>
    <circle class="cls-1" cx="299" cy="368.73" r="16.41"/>
    <circle class="cls-1" cx="318.56" cy="330.53" r="16.41"/>
    <circle class="cls-1" cx="352.75" cy="304.59" r="16.41"/>
    <circle class="cls-1" cx="394.81" cy="296.06" r="16.41"/>
    <circle class="cls-1" cx="436.4" cy="306.63" r="16.41"/>
    <circle class="cls-1" cx="469.3" cy="334.19" r="16.41"/>
    <circle class="cls-1" cx="486.97" cy="373.3" r="16.41"/>
    <circle class="cls-1" cx="485.93" cy="416.2" r="16.41"/>
  </g>
  <g>
    <path class="cls-4" d="M377.11,597.6c-.17,28.12,28.08,28.29,28.25,.17s-13.82-51.01-13.82-51.01c0,0-14.26,22.71-14.43,50.84Z"/>
    <path class="cls-4" d="M276.6,562.44c-14.21,24.27,10.17,38.54,24.38,14.27,14.21-24.27,13.54-51.08,13.54-51.08,0,0-23.71,12.54-37.92,36.81Z"/>
    <path class="cls-4" d="M207.14,481.73c-24.44,13.92-10.46,38.46,13.98,24.55,24.44-13.92,37.27-37.47,37.27-37.47,0,0-26.8-.99-51.24,12.92Z"/>
    <path class="cls-4" d="M187.34,377.11c-28.12-.17-28.29,28.08-.17,28.25s51.01-13.82,51.01-13.82c0,0-22.71-14.26-50.84-14.43Z"/>
    <path class="cls-4" d="M222.5,276.6c-24.27-14.21-38.54,10.17-14.27,24.38,24.27,14.21,51.08,13.54,51.08,13.54,0,0-12.54-23.71-36.81-37.92Z"/>
    <path class="cls-4" d="M303.2,207.14c-13.92-24.44-38.46-10.46-24.55,13.98s37.47,37.27,37.47,37.27c0,0,.99-26.8-12.92-51.24Z"/>
    <path class="cls-4" d="M407.82,187.34c.17-28.12-28.08-28.29-28.25-.17-.17,28.12,13.82,51.01,13.82,51.01,0,0,14.26-22.71,14.43-50.84Z"/>
    <path class="cls-4" d="M508.33,222.5c14.21-24.27-10.17-38.54-24.38-14.27-14.21,24.27-13.54,51.08-13.54,51.08,0,0,23.71-12.54,37.92-36.81Z"/>
    <path class="cls-4" d="M577.79,303.2c24.44-13.92,10.46-38.46-13.98-24.55s-37.27,37.47-37.27,37.47c0,0,26.8,.99,51.24-12.92Z"/>
    <path class="cls-4" d="M597.6,407.82c28.12,.17,28.29-28.08,.17-28.25-28.12-.17-51.01,13.82-51.01,13.82,0,0,22.71,14.26,50.84,14.43Z"/>
    <path class="cls-4" d="M562.44,508.33c24.27,14.21,38.54-10.17,14.27-24.38-24.27-14.21-51.08-13.54-51.08-13.54,0,0,12.54,23.71,36.81,37.92Z"/>
    <path class="cls-4" d="M481.73,577.79c13.92,24.44,38.46,10.46,24.55-13.98-13.92-24.44-37.47-37.27-37.47-37.27,0,0-.99,26.8,12.92,51.24Z"/>
  </g>
</svg>