<?xml version="1.0" encoding="UTF-8"?>
<svg id="Layer_2" data-name="Layer 2" xmlns="http://www.w3.org/2000/svg" viewBox="0 0 1272 475.55">
  <defs>
    <style>
      .cls-1 {
        fill: #005e7b;
      }

      .cls-2 {
        fill: #fff;
      }

      .cls-3 {
        fill: #65985e;
      }
    </style>
  </defs>
  <g>
    <path class="cls-1" d="M1272,237.77c0,39.47-9.62,76.7-26.66,109.46-14.63,28.17-34.71,53.04-58.88,73.18-41.23,34.41-94.33,55.14-152.23,55.14s-111.39-20.87-152.71-55.56c-34.58-28.95-60.76-67.61-74.44-111.75-6.91-22.27-10.63-45.93-10.63-70.46,0-100.84,62.8-187.03,151.39-221.58,26.77-10.46,55.92-16.2,86.38-16.2,124.54,0,226.72,95.75,236.91,217.66,.59,6.63,.87,13.34,.87,20.11Z"/>
    <path class="cls-3" d="M922.36,155.81c-9.54,2.32-16.08,2.66-14.66,15.78,1.17,10.71-6.49,20.5-13.71,27.92-17.6,18.07-16.31,43.5-27.02,63.98-12.17,23.27,6.6,40.11,11.44,59.72,2.8,11.27,5.04,21.51-5.99,28.37-11.44,7.11-20.9,1.73-29.18-7.47-10.43-11.67-21.4-22.83-32.14-34.21-1.54,0-2.71-1.01-4.03-1.65-6.91-22.27-10.63-45.93-10.63-70.46,0-100.84,62.8-187.03,151.39-221.58,18.35,18.35,25.76,42.63,29.82,66.77,6.74,39.86-7.83,61.35-55.3,72.84Z"/>
    <path class="cls-3" d="M1060.79,35.28c33.13,2.52,64.48,11.28,93.62,27.57,4.04,2.26,7.88,4.97,12.11,6.79,23.65,10.2,37.15,27.38,40.75,53.41,1.61,11.68,7.33,22.83,11.53,34.09,3.6,9.67,2.95,18.95-4.92,25.54-7.81,6.54-16.78,4.23-26.03,.73-19.26-7.29-34.25-19.82-48.16-34.46-19.65-20.68-42.54-37.37-68.42-49.23-13.04-5.98-23.23-14.89-32.67-24.8-7.4-7.77-6.73-17.49-3.04-27.38,4.64-12.45,14.49-12.84,25.24-12.26Z"/>
    <path class="cls-3" d="M1049.04,215.61c.49,20.83-1.33,36.66-15.54,48.19-1.69,1.37-2.8,3.64-3.75,5.7-9.88,21.47-16.79,24.25-37.56,14.42-5.17-2.45-10.45-3.13-16.01-3.89-17.36-2.39-24-19.64-12.47-32.87,4.53-5.2,7.35-9.9,7.24-17.09-.21-13.48,7.93-22.06,20.24-24.7,8.49-1.82,10.28-5.6,10.49-13.14,.18-6.37,1.49-12.86,3.3-19,2.91-9.84,10.36-13.66,20.31-13.18,9.56,.46,15.74,5.39,17.89,14.57,2.31,9.86,4.24,19.84,5.72,29.85,.74,5,.13,10.21,.13,11.13Z"/>
    <path class="cls-3" d="M1186.46,420.41c-41.23,34.41-94.33,55.14-152.23,55.14s-111.39-20.87-152.71-55.56c15.81-8.22,33.65-4.56,50.27-8.14,2.21-.48,4.62-.06,6.94-.08,30.52-.42,60-4.34,90.35-10.55,44.51-9.09,92.23-10.27,135.67,12.67,6.77,3.55,13.99,6.07,21.71,6.52Z"/>
    <path class="cls-3" d="M1272,237.77c0,39.47-9.62,76.7-26.66,109.46-6.18-6.01-10.91,.36-15.58,2.71-26.66,13.37-54.35,21.18-84.14,14.07-13.74-3.27-26.52-8-36.17-20.92-5.79-7.78-18.46-10.27-17.74-23.58,.64-12.2,12.7-15.08,18.18-23.05,15.16-22.02,33.09-41.32,54.69-56.7,21.23-15.13,45.21-25.62,70.55-31.55,11.94-2.77,24.78-1.99,36,9.46,.59,6.63,.87,13.34,.87,20.11Z"/>
  </g>
  <path class="cls-1" d="M34.47,295.75H127.04v28.84H0V136.35H121.97v28.84H34.47v48.68H109.59v28.84H34.47v53.04Z"/>
  <path class="cls-1" d="M215.95,277.18l-35.17,47.41h-38.27l53.88-69.5-50.65-66.83h39.25l31.8,45.02,32.36-45.02h39.39l-52.05,66.69,53.46,69.64h-38.97l-35.03-47.41Z"/>
  <path class="cls-1" d="M377.88,328.11c-7.32,0-13.95-1.34-19.91-4.01-5.96-2.67-10.9-5.98-14.84-9.92h-.56c.09,1.88,.19,4.53,.28,7.95,.09,3.42,.14,7.15,.14,11.18v56.7h-33.34V188.26h29.26l1.41,15.33h.56c4.13-5.44,9.43-9.92,15.9-13.43,6.47-3.52,13.97-5.28,22.51-5.28,7.41,0,14.7,1.39,21.88,4.15,7.17,2.77,13.53,7.01,19.06,12.73,5.53,5.72,9.96,12.94,13.3,21.67,3.33,8.72,4.99,19.08,4.99,31.09,0,12.66-1.78,23.61-5.35,32.85-3.56,9.24-8.25,16.88-14.07,22.93-5.82,6.05-12.26,10.53-19.34,13.43-7.08,2.91-14.37,4.36-21.88,4.36Zm-4.36-116.49c-5.82,.09-11.35,1.53-16.6,4.29-5.25,2.77-9.9,6.5-13.93,11.18v60.78c1.41,1.6,3.1,3.19,5.06,4.79s4.17,3.05,6.61,4.36c2.44,1.31,5.14,2.39,8.09,3.23,2.96,.85,6.03,1.27,9.22,1.27,5.16,0,9.75-1.1,13.79-3.31,4.03-2.2,7.39-5.32,10.06-9.36,2.67-4.03,4.71-8.84,6.12-14.42,1.41-5.58,2.11-11.79,2.11-18.64,0-7.32-.73-13.74-2.18-19.27-1.45-5.53-3.52-10.13-6.19-13.79-2.67-3.66-5.89-6.43-9.64-8.3-3.75-1.88-7.93-2.81-12.52-2.81Z"/>
  <path class="cls-1" d="M469.47,324.59V120.88h33.34v203.71h-33.34Z"/>
  <path class="cls-1" d="M670.79,256.5c0,10.69-1.6,20.45-4.78,29.26-3.19,8.82-7.76,16.37-13.72,22.65-5.96,6.28-13.16,11.14-21.6,14.56-8.44,3.42-17.87,5.14-28.28,5.14s-20.28-1.72-28.77-5.14c-8.49-3.42-15.69-8.28-21.59-14.56-5.91-6.28-10.44-13.83-13.58-22.65-3.14-8.82-4.71-18.57-4.71-29.26s1.59-20.44,4.78-29.26c3.19-8.82,7.76-16.37,13.72-22.65,5.96-6.28,13.15-11.14,21.59-14.56,8.44-3.42,17.87-5.13,28.28-5.13s20.28,1.71,28.77,5.13c8.48,3.43,15.69,8.28,21.59,14.56,5.91,6.28,10.43,13.84,13.58,22.65,3.14,8.82,4.71,18.57,4.71,29.26Zm-34.47,0c0-7.22-.84-13.6-2.53-19.13-1.69-5.53-4.03-10.18-7.04-13.93-3-3.75-6.61-6.57-10.83-8.44-4.22-1.88-8.82-2.81-13.79-2.81s-9.4,.94-13.58,2.81c-4.17,1.88-7.76,4.69-10.76,8.44-3,3.75-5.34,8.39-7.03,13.93s-2.54,11.91-2.54,19.13,.85,13.6,2.54,19.13,4.05,10.15,7.1,13.86c3.05,3.71,6.66,6.52,10.83,8.44,4.17,1.92,8.74,2.88,13.72,2.88s9.52-.96,13.65-2.88c4.13-1.92,7.69-4.73,10.69-8.44,3-3.7,5.35-8.32,7.04-13.86,1.69-5.53,2.53-11.91,2.53-19.13Z"/>
  <path class="cls-1" d="M781.37,214.71h-2.81c-10.23,0-19.2,1.53-26.94,4.57-7.74,3.05-13.72,7.71-17.94,14v91.31h-33.34V188.26h27.57l3.1,18.99h.56c3.94-6.94,9.36-12.4,16.25-16.39,6.89-3.98,15.17-5.98,24.83-5.98,3.38,0,6.28,.19,8.72,.56v29.26Z"/>
  <path class="cls-2" d="M980.18,285.01h-70.89l-18.44,47.98h-36.72l74.71-188.24h31.51l74.7,188.24h-36.44l-18.44-47.98Zm-35.73-94.96c-6.58,19.69-12.45,36.15-17.61,49.37l-6.43,16.75h48.65l-6.43-16.75c-5.1-13.34-10.97-29.79-17.61-49.37h-.56Z"/>
  <path class="cls-2" d="M1201.07,201.3c0,13.13-3.64,24.27-10.9,33.41-7.27,9.15-18.5,15.92-33.7,20.33v.56l55.99,77.38h-41.36l-51.21-72.88h-23.64v72.88h-34.47V144.74h57.26c9.47,0,18.29,.54,26.45,1.62,8.16,1.08,15.14,2.7,20.96,4.85,11.07,4.22,19.6,10.48,25.6,18.78,6,8.3,9,18.74,9,31.3Zm-87.79,29.97c7.88,0,14.56-.35,20.05-1.06,5.49-.7,10.1-1.76,13.86-3.17,6.94-2.62,11.75-6.21,14.42-10.76,2.67-4.55,4.01-9.78,4.01-15.69,0-5.06-1.05-9.54-3.17-13.44-2.11-3.89-5.7-6.96-10.76-9.21-3.28-1.5-7.41-2.6-12.38-3.31-4.97-.7-11.12-1.06-18.43-1.06h-24.62v57.68h17.02Z"/>
</svg>